<svg xmlns="http://www.w3.org/2000/svg" xmlns:xlink="http://www.w3.org/1999/xlink" width="60" zoomAndPan="magnify" viewBox="0 0 45 44.999999" height="60" preserveAspectRatio="xMidYMid meet" version="1.0"><defs><clipPath id="556426f871"><path d="M 0.675781 0.675781 L 44.175781 0.675781 L 44.175781 44.175781 L 0.675781 44.175781 Z M 0.675781 0.675781 " clip-rule="nonzero"/></clipPath></defs><g clip-path="url(#556426f871)"><path fill="#ecd0a9" d="M 22.496094 0.675781 C 10.445312 0.675781 0.675781 10.445312 0.675781 22.496094 C 0.675781 34.542969 10.445312 44.316406 22.496094 44.316406 C 34.542969 44.316406 44.316406 34.542969 44.316406 22.496094 C 44.316406 10.445312 34.542969 0.675781 22.496094 0.675781 Z M 22.496094 10.027344 C 24.214844 10.027344 25.613281 11.421875 25.613281 13.144531 C 25.613281 14.863281 24.214844 16.261719 22.496094 16.261719 C 20.773438 16.261719 19.378906 14.863281 19.378906 13.144531 C 19.378906 11.421875 20.773438 10.027344 22.496094 10.027344 Z M 27.171875 34.964844 L 17.820312 34.964844 C 16.960938 34.964844 16.261719 34.265625 16.261719 33.40625 C 16.261719 32.546875 16.960938 31.847656 17.820312 31.847656 L 19.378906 31.847656 L 19.378906 22.496094 L 17.820312 22.496094 C 16.960938 22.496094 16.261719 21.792969 16.261719 20.9375 C 16.261719 20.078125 16.960938 19.378906 17.820312 19.378906 L 24.054688 19.378906 C 24.914062 19.378906 25.613281 20.078125 25.613281 20.9375 L 25.613281 31.847656 L 27.171875 31.847656 C 28.03125 31.847656 28.730469 32.546875 28.730469 33.40625 C 28.730469 34.265625 28.03125 34.964844 27.171875 34.964844 Z M 27.171875 34.964844 " fill-opacity="1" fill-rule="nonzero"/></g></svg>