<svg xmlns="http://www.w3.org/2000/svg" xmlns:xlink="http://www.w3.org/1999/xlink" width="60" zoomAndPan="magnify" viewBox="0 0 45 44.999999" height="60" preserveAspectRatio="xMidYMid meet" version="1.0"><defs><clipPath id="55ab5dc7d3"><path d="M 0 6.441406 L 20 6.441406 L 20 38.691406 L 0 38.691406 Z M 0 6.441406 " clip-rule="nonzero"/></clipPath><clipPath id="0d1339b0ff"><path d="M 12 6.441406 L 33 6.441406 L 33 38.691406 L 12 38.691406 Z M 12 6.441406 " clip-rule="nonzero"/></clipPath><clipPath id="f14336a0e8"><path d="M 25 6.441406 L 45 6.441406 L 45 38.691406 L 25 38.691406 Z M 25 6.441406 " clip-rule="nonzero"/></clipPath></defs><g clip-path="url(#55ab5dc7d3)"><path fill="#ecd0a9" d="M 18.472656 20.394531 L 5.769531 7.691406 C 4.519531 6.453125 2.503906 6.453125 1.253906 7.691406 C 0 8.945312 0 10.957031 1.253906 12.210938 L 11.699219 22.65625 L 1.253906 33.101562 C 0 34.351562 0 36.363281 1.253906 37.617188 C 1.878906 38.242188 2.6875 38.550781 3.511719 38.550781 C 4.335938 38.550781 5.144531 38.242188 5.769531 37.617188 L 18.472656 24.914062 C 19.714844 23.660156 19.714844 21.648438 18.472656 20.394531 Z M 18.472656 20.394531 " fill-opacity="1" fill-rule="nonzero"/></g><g clip-path="url(#0d1339b0ff)"><path fill="#ecd0a9" d="M 31.117188 20.394531 L 18.414062 7.691406 C 17.160156 6.441406 15.148438 6.441406 13.894531 7.691406 C 12.644531 8.945312 12.644531 10.957031 13.894531 12.210938 L 24.339844 22.65625 L 13.894531 33.101562 C 12.644531 34.351562 12.644531 36.363281 13.894531 37.617188 C 14.523438 38.242188 15.332031 38.550781 16.152344 38.550781 C 16.976562 38.550781 17.785156 38.242188 18.414062 37.617188 L 31.117188 24.914062 C 32.355469 23.660156 32.355469 21.648438 31.117188 20.394531 Z M 31.117188 20.394531 " fill-opacity="1" fill-rule="nonzero"/></g><g clip-path="url(#f14336a0e8)"><path fill="#ecd0a9" d="M 43.757812 20.394531 L 31.054688 7.691406 C 29.804688 6.441406 27.789062 6.441406 26.539062 7.691406 C 25.285156 8.945312 25.285156 10.957031 26.539062 12.210938 L 36.984375 22.65625 L 26.539062 33.101562 C 25.285156 34.351562 25.285156 36.363281 26.539062 37.617188 C 27.164062 38.242188 27.972656 38.550781 28.796875 38.550781 C 29.617188 38.550781 30.429688 38.242188 31.054688 37.617188 L 43.757812 24.914062 C 45 23.660156 45 21.648438 43.757812 20.394531 Z M 43.757812 20.394531 " fill-opacity="1" fill-rule="nonzero"/></g></svg>