<svg xmlns="http://www.w3.org/2000/svg" xmlns:xlink="http://www.w3.org/1999/xlink" width="60" zoomAndPan="magnify" viewBox="0 0 45 44.999999" height="60" preserveAspectRatio="xMidYMid meet" version="1.2"><defs><clipPath id="e35f67f70e"><path d="M 4.5 0 L 40.5 0 L 40.5 44.25 L 4.5 44.25 Z M 4.5 0 "/></clipPath></defs><g id="5a9f353ec6"><g clip-rule="nonzero" clip-path="url(#e35f67f70e)"><path style=" stroke:none;fill-rule:nonzero;fill:#ffffff;fill-opacity:1;" d="M 19.261719 3.160156 L 19.261719 41.089844 C 19.261719 41.507812 19.183594 41.910156 19.023438 42.300781 C 18.863281 42.6875 18.632812 43.027344 18.335938 43.324219 C 18.042969 43.621094 17.699219 43.847656 17.3125 44.007812 C 16.925781 44.167969 16.523438 44.25 16.101562 44.25 L 7.675781 44.25 C 7.253906 44.25 6.851562 44.167969 6.464844 44.007812 C 6.078125 43.847656 5.734375 43.621094 5.4375 43.324219 C 5.144531 43.027344 4.914062 42.6875 4.753906 42.300781 C 4.59375 41.910156 4.511719 41.507812 4.511719 41.089844 L 4.511719 3.160156 C 4.511719 2.742188 4.59375 2.339844 4.753906 1.949219 C 4.914062 1.5625 5.144531 1.222656 5.4375 0.925781 C 5.734375 0.628906 6.078125 0.402344 6.464844 0.242188 C 6.851562 0.0820312 7.253906 0 7.675781 0 L 16.101562 0 C 16.523438 0 16.925781 0.0820312 17.3125 0.242188 C 17.699219 0.402344 18.042969 0.628906 18.335938 0.925781 C 18.632812 1.222656 18.863281 1.5625 19.023438 1.949219 C 19.183594 2.339844 19.261719 2.742188 19.261719 3.160156 Z M 37.175781 0 L 28.746094 0 C 28.328125 0 27.921875 0.0820312 27.535156 0.242188 C 27.148438 0.402344 26.808594 0.628906 26.511719 0.925781 C 26.214844 1.222656 25.984375 1.5625 25.824219 1.949219 C 25.664062 2.339844 25.585938 2.742188 25.585938 3.160156 L 25.585938 41.089844 C 25.585938 41.507812 25.664062 41.910156 25.824219 42.300781 C 25.984375 42.6875 26.214844 43.027344 26.511719 43.324219 C 26.808594 43.621094 27.148438 43.847656 27.535156 44.007812 C 27.921875 44.167969 28.328125 44.25 28.746094 44.25 L 37.175781 44.25 C 37.59375 44.25 37.996094 44.167969 38.382812 44.007812 C 38.769531 43.847656 39.113281 43.621094 39.410156 43.324219 C 39.707031 43.027344 39.933594 42.6875 40.09375 42.300781 C 40.253906 41.910156 40.335938 41.507812 40.335938 41.089844 L 40.335938 3.160156 C 40.335938 2.742188 40.253906 2.339844 40.09375 1.949219 C 39.933594 1.5625 39.707031 1.222656 39.410156 0.925781 C 39.113281 0.628906 38.769531 0.402344 38.382812 0.242188 C 37.996094 0.0820312 37.59375 0 37.175781 0 Z M 37.175781 0 "/></g></g></svg>