<svg xmlns="http://www.w3.org/2000/svg" xmlns:xlink="http://www.w3.org/1999/xlink" width="60" zoomAndPan="magnify" viewBox="0 0 45 44.999999" height="60" preserveAspectRatio="xMidYMid meet" version="1.0"><defs><clipPath id="065f7b58cb"><path d="M 5.207031 1.152344 L 39.707031 1.152344 L 39.707031 43.902344 L 5.207031 43.902344 Z M 5.207031 1.152344 " clip-rule="nonzero"/></clipPath></defs><g clip-path="url(#065f7b58cb)"><path fill="#ecd0a9" d="M 19.449219 4.203125 L 19.449219 40.796875 C 19.449219 41.199219 19.375 41.589844 19.21875 41.960938 C 19.0625 42.335938 18.84375 42.664062 18.558594 42.953125 C 18.269531 43.238281 17.941406 43.457031 17.566406 43.613281 C 17.195312 43.765625 16.804688 43.84375 16.402344 43.84375 L 8.269531 43.84375 C 7.863281 43.84375 7.476562 43.765625 7.101562 43.613281 C 6.730469 43.457031 6.398438 43.238281 6.113281 42.953125 C 5.828125 42.664062 5.605469 42.335938 5.453125 41.960938 C 5.296875 41.589844 5.21875 41.199219 5.21875 40.796875 L 5.21875 4.203125 C 5.21875 3.796875 5.296875 3.410156 5.453125 3.035156 C 5.605469 2.660156 5.828125 2.332031 6.113281 2.046875 C 6.398438 1.761719 6.730469 1.539062 7.101562 1.386719 C 7.476562 1.230469 7.863281 1.152344 8.269531 1.152344 L 16.402344 1.152344 C 16.804688 1.152344 17.195312 1.230469 17.566406 1.386719 C 17.941406 1.539062 18.269531 1.761719 18.558594 2.046875 C 18.84375 2.332031 19.0625 2.660156 19.21875 3.035156 C 19.375 3.410156 19.449219 3.796875 19.449219 4.203125 Z M 36.730469 1.152344 L 28.597656 1.152344 C 28.195312 1.152344 27.804688 1.230469 27.433594 1.386719 C 27.058594 1.539062 26.726562 1.761719 26.441406 2.046875 C 26.15625 2.332031 25.9375 2.660156 25.78125 3.035156 C 25.625 3.410156 25.550781 3.796875 25.550781 4.203125 L 25.550781 40.796875 C 25.550781 41.199219 25.625 41.589844 25.78125 41.960938 C 25.9375 42.335938 26.15625 42.664062 26.441406 42.953125 C 26.726562 43.238281 27.058594 43.457031 27.433594 43.613281 C 27.804688 43.765625 28.195312 43.84375 28.597656 43.84375 L 36.730469 43.84375 C 37.132812 43.84375 37.523438 43.765625 37.898438 43.613281 C 38.269531 43.457031 38.601562 43.238281 38.886719 42.953125 C 39.171875 42.664062 39.394531 42.335938 39.546875 41.960938 C 39.703125 41.589844 39.78125 41.199219 39.78125 40.796875 L 39.78125 4.203125 C 39.78125 3.796875 39.703125 3.410156 39.546875 3.035156 C 39.394531 2.660156 39.171875 2.332031 38.886719 2.046875 C 38.601562 1.761719 38.269531 1.539062 37.898438 1.386719 C 37.523438 1.230469 37.132812 1.152344 36.730469 1.152344 Z M 36.730469 1.152344 " fill-opacity="1" fill-rule="nonzero"/></g></svg>